<svg width="18" height="21" viewBox="0 0 18 21" fill="none" xmlns="http://www.w3.org/2000/svg">
<path fill-rule="evenodd" clip-rule="evenodd" d="M3.37975 0C2.48338 0 1.62373 0.35608 0.989905 0.989905C0.35608 1.62373 0 2.48338 0 3.37975V19.1519V19.9405C0 20.5005 0.453949 20.9544 1.01392 20.9544H15.2089C15.7688 20.9544 16.2228 20.5005 16.2228 19.9405C16.2228 19.3805 15.7688 18.9266 15.2089 18.9266H2.04675C2.09323 18.6516 2.22402 18.3958 2.42381 18.196C2.67734 17.9424 3.0212 17.8 3.37975 17.8H16.7861C17.3461 17.8 17.8 17.3461 17.8 16.7861V1.01392C17.8 0.453949 17.3461 0 16.7861 0H3.37975ZM3.37975 15.7722C2.90995 15.7722 2.45025 15.87 2.02785 16.0543V3.37975C2.02785 3.0212 2.17028 2.67734 2.42381 2.42381C2.67734 2.17028 3.0212 2.02785 3.37975 2.02785H15.7722V15.7722H3.37975ZM3.83017 6.47783C3.83017 5.94897 4.2589 5.52024 4.78776 5.52024H13.1996C13.7284 5.52024 14.1572 5.94897 14.1572 6.47783C14.1572 7.0067 13.7284 7.43543 13.1996 7.43543H4.78776C4.2589 7.43543 3.83017 7.0067 3.83017 6.47783ZM4.78776 8.67466C4.2589 8.67466 3.83017 9.10339 3.83017 9.63225C3.83017 10.1611 4.2589 10.5898 4.78776 10.5898H10.9464C11.4753 10.5898 11.904 10.1611 11.904 9.63225C11.904 9.10339 11.4753 8.67466 10.9464 8.67466H4.78776Z" fill="#464D57"/>
</svg>
